<svg xmlns="http://www.w3.org/2000/svg" viewBox="0 0 128 128">
  <defs>
    <linearGradient id="shieldGrad" x1="0%" y1="0%" x2="0%" y2="100%">
      <stop offset="0%" style="stop-color:#4A90D9"/>
      <stop offset="100%" style="stop-color:#2E5B8A"/>
    </linearGradient>
    <linearGradient id="keyGrad" x1="0%" y1="0%" x2="0%" y2="100%">
      <stop offset="0%" style="stop-color:#FFFFFF"/>
      <stop offset="100%" style="stop-color:#E8E8E8"/>
    </linearGradient>
  </defs>

  <!-- Shield shape -->
  <path d="M64 8 L112 28 L112 60 C112 90 88 112 64 120 C40 112 16 90 16 60 L16 28 Z"
        fill="url(#shieldGrad)"
        stroke="#1E3A5F"
        stroke-width="2"/>

  <!-- Enter key -->
  <rect x="32" y="42" width="64" height="44" rx="6" ry="6"
        fill="url(#keyGrad)"
        stroke="#CCCCCC"
        stroke-width="1"/>

  <!-- Enter arrow symbol -->
  <path d="M76 54 L76 64 L52 64 L52 58 L44 66 L52 74 L52 68 L80 68 L80 54 Z"
        fill="#2E5B8A"/>

  <!-- Small shield checkmark accent -->
  <circle cx="88" cy="92" r="14" fill="#4CAF50" stroke="#2E7D32" stroke-width="1"/>
  <path d="M81 92 L86 97 L95 86"
        stroke="white"
        stroke-width="3"
        stroke-linecap="round"
        stroke-linejoin="round"
        fill="none"/>
</svg>
